<svg width="5758" height="947" viewBox="0 0 5758 947" fill="none" xmlns="http://www.w3.org/2000/svg">
<path d="M1319.5 231H1466V261H1319.5V231ZM1319.5 297H1466V326.5H1319.5V297ZM1299 165H1483V196H1299V165ZM1336 363.5H1469V509.5H1336V478H1436V395H1336V363.5ZM1319.5 363.5H1352.5V533.5H1319.5V363.5ZM1355.5 93L1384.5 78C1391.83 88 1399.17 99 1406.5 111C1413.83 123 1419.33 133.5 1423 142.5L1392.5 160C1388.83 151 1383.33 140.167 1376 127.5C1369 114.5 1362.17 103 1355.5 93ZM1524 485H1709.5V518H1524V485ZM1491 101H1747V133H1491V101ZM1478 291.5H1758V323.5H1478V291.5ZM1506 359H1727V538.5H1690.5V392H1541V540H1506V359ZM1503 184.5H1710.5V305.5H1675V216.5H1503V184.5ZM1577.5 113.5L1614.5 117.5C1611.17 137.167 1607.33 158.667 1603 182C1599 205 1594.83 227.333 1590.5 249C1586.17 270.333 1582.17 288.833 1578.5 304.5H1541.5C1544.83 292.167 1548 278.167 1551 262.5C1554.33 246.833 1557.5 230.333 1560.5 213C1563.83 195.667 1567 178.5 1570 161.5C1573 144.5 1575.5 128.5 1577.5 113.5ZM2191 486.5H2455.5V518.5H2191V486.5ZM2172 304H2473.5V335H2172V304ZM2172 229H2473.5V260H2172V229ZM2099 155H2547.5V188H2099V155ZM2167 382.5H2479V538H2441V414.5H2204V539.5H2167V382.5ZM2278 90L2314.5 79C2324.17 89.6666 2333.83 101.5 2343.5 114.5C2353.17 127.5 2360.17 139 2364.5 149L2326.5 161.5C2322.17 151.833 2315.33 140.333 2306 127C2297 113.333 2287.67 101 2278 90ZM2893.5 410H3341V442H2893.5V410ZM2986.5 322H3223V350.5H2986.5V322ZM3103.5 388.5H3140V500C3140 509.667 3138.67 517 3136 522C3133.33 527 3128 531 3120 534C3112.33 536.333 3101.83 537.667 3088.5 538C3075.5 538.333 3059 538.5 3039 538.5C3038 533.833 3036.17 528.5 3033.5 522.5C3031.17 516.833 3028.67 511.667 3026 507C3036.33 507.333 3046.17 507.5 3055.5 507.5C3064.83 507.833 3072.83 507.833 3079.5 507.5C3086.17 507.5 3090.83 507.5 3093.5 507.5C3097.5 507.5 3100.17 506.833 3101.5 505.5C3102.83 504.167 3103.5 502 3103.5 499V388.5ZM3214 322H3223L3231 320L3253 339.5C3241.33 348.5 3228.17 357.333 3213.5 366C3198.83 374.333 3183.67 382.167 3168 389.5C3152.33 396.5 3137 402.833 3122 408.5C3119.67 405.167 3116.67 401.667 3113 398C3109.33 394 3106.17 390.833 3103.5 388.5C3116.83 383.833 3130.33 378.167 3144 371.5C3158 364.833 3171.17 357.833 3183.5 350.5C3195.83 342.833 3206 335.667 3214 329V322ZM2904.5 259H3331.5V350.5H3294V288H2940.5V350.5H2904.5V259ZM3267.5 99H3303.5C3302.5 118 3301.33 138.333 3300 160C3298.67 181.333 3297.17 202.167 3295.5 222.5C3293.83 242.833 3292 260.333 3290 275H3254C3256.33 260 3258.33 242.333 3260 222C3261.67 201.333 3263.17 180.333 3264.5 159C3265.83 137.333 3266.83 117.333 3267.5 99ZM3186.5 99H3282.5V125H3186.5V99ZM3032 84.5L3049 107.5C3034.33 113.167 3017.67 117.833 2999 121.5C2980.33 125.167 2963.5 128.167 2948.5 130.5L2934.5 109C2944.5 107.333 2955.33 105.167 2967 102.5C2979 99.5 2990.67 96.3333 3002 93C3013.67 89.6666 3023.67 86.8333 3032 84.5ZM2954.5 152H3045.5V178H2954.5V152ZM2957 205.5H3048V231H2957V205.5ZM3189 152H3279V178H3189V152ZM3186.5 205.5H3275V231H3186.5V205.5ZM3141 84.5L3167.5 92C3156.17 107.333 3141.83 122 3124.5 136C3107.5 149.667 3090.67 161 3074 170C3071.67 167.667 3068.17 164.667 3063.5 161C3059.17 157 3055.5 154 3052.5 152C3069.5 143.333 3086 133.167 3102 121.5C3118.33 109.833 3131.33 97.5 3141 84.5ZM3061.5 107.5L3080.5 90.5C3091.5 95.5 3102.83 101.333 3114.5 108C3126.5 114.333 3137.67 121 3148 128C3158.67 134.667 3167.5 141 3174.5 147L3155 165.5C3148.33 159.5 3139.83 153 3129.5 146C3119.17 139 3108 132.167 3096 125.5C3084.33 118.5 3072.83 112.5 3061.5 107.5ZM3142.5 169L3169 177C3157 193 3142 208.333 3124 223C3106 237.333 3088 249.333 3070 259C3067.67 256.333 3064.33 253 3060 249C3055.67 244.667 3052 241.333 3049 239C3066.67 230.333 3084 220 3101 208C3118.33 195.667 3132.17 182.667 3142.5 169ZM3060 191L3079 175C3090.33 180.333 3102.17 186.5 3114.5 193.5C3126.83 200.5 3138.33 207.833 3149 215.5C3160 222.833 3169 229.833 3176 236.5L3156 255C3149.33 248.333 3140.67 241.167 3130 233.5C3119.33 225.833 3107.83 218.333 3095.5 211C3083.5 203.333 3071.67 196.667 3060 191ZM2934.5 109L2971 118.5L2980.5 274H2945.5L2934.5 109ZM3890.5 107.5H4132V143H3890.5V107.5ZM3876.5 287H4142V323H3876.5V287ZM4049.5 121.5H4085.5V540H4049.5V121.5ZM3932.5 123H3968V298.5C3968 319.167 3967.17 340.5 3965.5 362.5C3963.83 384.167 3960.5 405.667 3955.5 427C3950.83 448 3943.67 468.333 3934 488C3924.67 507.667 3912.17 525.667 3896.5 542C3894.5 540 3891.67 537.5 3888 534.5C3884.67 531.833 3881.17 529.167 3877.5 526.5C3874.17 524.167 3870.83 522.167 3867.5 520.5C3882.17 505.5 3893.67 489 3902 471C3910.67 452.667 3917.17 433.667 3921.5 414C3926.17 394.333 3929.17 374.667 3930.5 355C3931.83 335.333 3932.5 316.333 3932.5 298V123ZM3687.5 107.5H3863.5V142H3687.5V107.5ZM3737.5 260.5H3855V477H3737.5V443.5H3821.5V294.5H3737.5V260.5ZM3753 123.5L3787.5 131C3781.83 162.333 3774.67 193 3766 223C3757.33 253 3747.17 281.167 3735.5 307.5C3724.17 333.5 3710.67 356.5 3695 376.5C3694.33 373.167 3693 369 3691 364C3689 359 3686.83 353.833 3684.5 348.5C3682.17 343.167 3680 339 3678 336C3697.33 310.333 3713 279 3725 242C3737 204.667 3746.33 165.167 3753 123.5ZM3721.5 260.5H3753.5V517H3721.5V260.5ZM4513 343.5H4802.5V378.5H4513V343.5ZM4780 343.5H4818.5V477C4818.5 483.667 4819.67 488 4822 490C4824.33 491.667 4829.17 492.5 4836.5 492.5C4838.17 492.5 4841.17 492.5 4845.5 492.5C4849.83 492.5 4854.67 492.5 4860 492.5C4865.33 492.5 4870.17 492.5 4874.5 492.5C4879.17 492.5 4882.5 492.5 4884.5 492.5C4889.83 492.5 4893.67 491 4896 488C4898.67 484.667 4900.5 477.667 4901.5 467C4902.83 456 4903.67 439.667 4904 418C4907 420.333 4910.5 422.5 4914.5 424.5C4918.83 426.5 4923.17 428.333 4927.5 430C4932.17 431.667 4936.33 433 4940 434C4938.67 459.333 4936.33 479 4933 493C4929.67 507 4924.5 516.5 4917.5 521.5C4910.5 526.833 4900.83 529.5 4888.5 529.5C4886.5 529.5 4882.67 529.5 4877 529.5C4871.67 529.5 4865.83 529.5 4859.5 529.5C4853.17 529.5 4847.33 529.5 4842 529.5C4836.67 529.5 4833 529.5 4831 529.5C4817.67 529.5 4807.33 528 4800 525C4792.67 522 4787.5 516.667 4784.5 509C4781.5 501.333 4780 490.667 4780 477V343.5ZM4495.5 129H4922.5V215.5H4883.5V163.5H4533V219H4495.5V129ZM4657 282H4696V342.5C4696 355.833 4694.67 369.833 4692 384.5C4689.67 399.167 4684.67 413.833 4677 428.5C4669.67 443.167 4659 457.333 4645 471C4631 484.667 4612.5 497.5 4589.5 509.5C4566.83 521.5 4538.67 532.167 4505 541.5C4502.33 536.833 4498.5 531.5 4493.5 525.5C4488.5 519.5 4483.67 514.333 4479 510C4510.67 501.667 4537.17 492.167 4558.5 481.5C4579.83 470.833 4597 459.667 4610 448C4623.33 436 4633.33 424 4640 412C4646.67 399.667 4651.17 387.5 4653.5 375.5C4655.83 363.5 4657 352.167 4657 341.5V282ZM4631 155H4670.5C4668.17 175.333 4664.17 193.333 4658.5 209C4652.83 224.667 4644.5 238.333 4633.5 250C4622.83 261.667 4608.33 271.667 4590 280C4571.67 288.333 4548.67 295.333 4521 301C4519 296.667 4516 291.5 4512 285.5C4508 279.167 4504.17 274.167 4500.5 270.5C4525.5 266.167 4546 260.833 4562 254.5C4578.33 247.833 4591.17 240 4600.5 231C4609.83 221.667 4616.83 210.833 4621.5 198.5C4626.17 185.833 4629.33 171.333 4631 155ZM4676 86L4714 79C4718.67 89 4723.33 100 4728 112C4732.67 123.667 4736.17 133.5 4738.5 141.5L4699 151C4696.67 142.667 4693.33 132.333 4689 120C4684.67 107.667 4680.33 96.3333 4676 86ZM4743 154.5H4781V246.5C4781 253.167 4781.83 257.833 4783.5 260.5C4785.17 263.167 4789.17 264.5 4795.5 264.5C4798.17 264.5 4803 264.5 4810 264.5C4817.33 264.5 4825.17 264.5 4833.5 264.5C4841.83 264.5 4849.5 264.5 4856.5 264.5C4863.83 264.5 4869 264.5 4872 264.5C4877.67 264.5 4884.33 264.333 4892 264C4899.67 263.333 4905.67 262.5 4910 261.5C4910.33 266.5 4910.67 272 4911 278C4911.67 284 4912.33 289.167 4913 293.5C4909.33 294.5 4903.83 295.167 4896.5 295.5C4889.17 295.833 4881.5 296 4873.5 296C4870.17 296 4864.67 296 4857 296C4849.33 296 4841 296 4832 296C4823 296 4814.83 296 4807.5 296C4800.17 296 4795.33 296 4793 296C4779.67 296 4769.33 294.333 4762 291C4755 287.667 4750 282.5 4747 275.5C4744.33 268.167 4743 258.5 4743 246.5V154.5ZM5535.5 249.5H5731V285.5H5535.5V249.5ZM5635 273.5H5672.5V538.5H5635V273.5ZM5301 129.5H5338V304.5C5338 322.167 5337.5 341.333 5336.5 362C5335.5 382.667 5333.67 403.667 5331 425C5328.33 446 5324.17 466.5 5318.5 486.5C5313.17 506.167 5306 524.333 5297 541C5295 538.333 5292 535.5 5288 532.5C5284.33 529.5 5280.5 526.5 5276.5 523.5C5272.5 520.5 5269.17 518.333 5266.5 517C5277.17 496.667 5285 474.167 5290 449.5C5295 424.833 5298 400 5299 375C5300.33 349.667 5301 326.167 5301 304.5V129.5ZM5696 86L5721.5 118C5705.17 124.667 5686.17 130.833 5664.5 136.5C5642.83 142.167 5620.5 147.167 5597.5 151.5C5574.5 155.5 5552.17 159 5530.5 162C5529.83 157.667 5528.33 152.333 5526 146C5523.67 139.667 5521.33 134.5 5519 130.5C5540 127.167 5561.5 123.333 5583.5 119C5605.5 114.667 5626.33 109.667 5646 104C5666 98.3333 5682.67 92.3333 5696 86ZM5322 205.5H5473.5V353.5H5322V319.5H5437V239.5H5322V205.5ZM5472.5 90.5L5496.5 122C5480.83 128.667 5462.5 134.5 5441.5 139.5C5420.83 144.5 5399.17 148.667 5376.5 152C5354.17 155.333 5332.67 158.167 5312 160.5C5311.33 155.833 5309.83 150.667 5307.5 145C5305.5 139 5303.33 133.833 5301 129.5C5321 126.833 5341.67 123.667 5363 120C5384.67 116.333 5405 112 5424 107C5443.33 101.667 5459.5 96.1666 5472.5 90.5ZM5519 130.5H5557.5V297C5557.5 316 5556.5 336.333 5554.5 358C5552.83 379.333 5549.5 401 5544.5 423C5539.5 444.667 5532 465.667 5522 486C5512.33 506.333 5499.33 524.667 5483 541C5481.33 538.667 5478.67 535.833 5475 532.5C5471.33 529.167 5467.5 525.833 5463.5 522.5C5459.83 519.5 5456.67 517.333 5454 516C5468.67 500.667 5480.33 484 5489 466C5498 447.667 5504.5 428.833 5508.5 409.5C5512.83 390.167 5515.67 371 5517 352C5518.33 332.667 5519 314.333 5519 297V130.5Z" fill="white"/>
<path d="M1374.25 900.25C1358.08 900.25 1343.75 896.5 1331.25 889C1318.92 881.5 1309.17 870.667 1302 856.5C1295 842.333 1291.5 825.333 1291.5 805.5C1291.5 790.667 1293.58 777.417 1297.75 765.75C1301.92 753.917 1307.75 743.917 1315.25 735.75C1322.92 727.583 1331.83 721.333 1342 717C1352.17 712.667 1363.33 710.5 1375.5 710.5C1388.33 710.5 1399 712.917 1407.5 717.75C1416 722.417 1422.92 727.5 1428.25 733L1415.75 748C1411.08 743.167 1405.58 739.083 1399.25 735.75C1393.08 732.417 1385.42 730.75 1376.25 730.75C1363.92 730.75 1353.17 733.75 1344 739.75C1334.83 745.75 1327.75 754.333 1322.75 765.5C1317.75 776.5 1315.25 789.583 1315.25 804.75C1315.25 820.25 1317.58 833.667 1322.25 845C1327.08 856.167 1334.08 864.833 1343.25 871C1352.42 877 1363.5 880 1376.5 880C1383 880 1389.17 879.083 1395 877.25C1401 875.25 1405.83 872.583 1409.5 869.25V821.25H1370.5V802H1430.75V879C1424.75 885.167 1416.83 890.25 1407 894.25C1397.33 898.25 1386.42 900.25 1374.25 900.25ZM1474.61 897V713.75H1531.86C1544.36 713.75 1555.36 715.417 1564.86 718.75C1574.53 721.917 1582.11 727.25 1587.61 734.75C1593.11 742.25 1595.86 752.333 1595.86 765C1595.86 777.167 1593.11 787.333 1587.61 795.5C1582.11 803.5 1574.53 809.5 1564.86 813.5C1555.36 817.333 1544.36 819.25 1531.86 819.25H1497.61V897H1474.61ZM1497.61 800.75H1528.36C1542.7 800.75 1553.7 797.833 1561.36 792C1569.03 786 1572.86 777 1572.86 765C1572.86 753 1569.03 744.583 1561.36 739.75C1553.7 734.917 1542.7 732.5 1528.36 732.5H1497.61V800.75ZM1575.11 897L1527.11 813.25L1545.36 801L1601.11 897H1575.11ZM1607.35 897L1669.35 713.75H1695.1L1757.35 897H1732.85L1700.85 794.5C1697.51 784 1694.35 773.75 1691.35 763.75C1688.35 753.583 1685.35 743.167 1682.35 732.5H1681.35C1678.51 743.167 1675.51 753.583 1672.35 763.75C1669.35 773.75 1666.26 784 1663.1 794.5L1630.6 897H1607.35ZM1639.6 841V822.75H1724.1V841H1639.6ZM1783.7 897V713.75H1829.45C1848.28 713.75 1864.11 717.333 1876.95 724.5C1889.78 731.5 1899.45 741.75 1905.95 755.25C1912.45 768.75 1915.7 785.25 1915.7 804.75C1915.7 824.083 1912.45 840.667 1905.95 854.5C1899.45 868.333 1889.86 878.917 1877.2 886.25C1864.53 893.417 1848.95 897 1830.45 897H1783.7ZM1806.7 878H1827.45C1841.78 878 1853.7 875.167 1863.2 869.5C1872.86 863.667 1880.03 855.25 1884.7 844.25C1889.53 833.25 1891.95 820.083 1891.95 804.75C1891.95 789.083 1889.53 775.917 1884.7 765.25C1880.03 754.583 1872.86 746.5 1863.2 741C1853.7 735.333 1841.78 732.5 1827.45 732.5H1806.7V878ZM2020.81 900.25C2011.48 900.25 2002.81 898.917 1994.81 896.25C1986.81 893.583 1979.81 889.167 1973.81 883C1967.98 876.833 1963.4 868.667 1960.06 858.5C1956.73 848.333 1955.06 836 1955.06 821.5V713.75H1978.06V822C1978.06 836.667 1979.98 848.25 1983.81 856.75C1987.65 865.083 1992.73 871.083 1999.06 874.75C2005.56 878.25 2012.81 880 2020.81 880C2028.98 880 2036.31 878.25 2042.81 874.75C2049.31 871.083 2054.48 865.083 2058.31 856.75C2062.31 848.25 2064.31 836.667 2064.31 822V713.75H2086.56V821.5C2086.56 836 2084.9 848.333 2081.56 858.5C2078.4 868.667 2073.81 876.833 2067.81 883C2061.81 889.167 2054.81 893.583 2046.81 896.25C2038.81 898.917 2030.15 900.25 2020.81 900.25ZM2106.37 897L2168.37 713.75H2194.12L2256.37 897H2231.87L2199.87 794.5C2196.54 784 2193.37 773.75 2190.37 763.75C2187.37 753.583 2184.37 743.167 2181.37 732.5H2180.37C2177.54 743.167 2174.54 753.583 2171.37 763.75C2168.37 773.75 2165.29 784 2162.12 794.5L2129.62 897H2106.37ZM2138.62 841V822.75H2223.12V841H2138.62ZM2304.85 897V733.25H2249.35V713.75H2383.6V733.25H2328.1V897H2304.85ZM2416.51 897V713.75H2522.01V733.25H2439.51V790.75H2509.01V810.5H2439.51V877.25H2524.76V897H2416.51ZM2619.63 897V713.75H2642.63V897H2619.63ZM2692.88 897V713.75H2716.38L2783.38 829.25L2803.13 867H2804.38C2803.54 857.833 2802.79 848.25 2802.13 838.25C2801.46 828.25 2801.13 818.5 2801.13 809V713.75H2823.13V897H2799.38L2732.63 781.25L2712.88 743.75H2711.88C2712.38 752.917 2712.96 762.333 2713.63 772C2714.29 781.5 2714.63 791.083 2714.63 800.75V897H2692.88ZM2924.29 900.25C2911.29 900.25 2899.29 897.833 2888.29 893C2877.46 888.167 2868.12 881.583 2860.29 873.25L2874.04 857.25C2880.54 864.083 2888.21 869.583 2897.04 873.75C2905.87 877.917 2915.04 880 2924.54 880C2936.71 880 2946.12 877.25 2952.79 871.75C2959.62 866.25 2963.04 859.083 2963.04 850.25C2963.04 843.75 2961.62 838.583 2958.79 834.75C2956.12 830.917 2952.46 827.75 2947.79 825.25C2943.29 822.583 2938.12 820 2932.29 817.5L2906.04 806C2900.37 803.5 2894.62 800.333 2888.79 796.5C2883.12 792.667 2878.37 787.667 2874.54 781.5C2870.71 775.333 2868.79 767.833 2868.79 759C2868.79 749.5 2871.29 741.167 2876.29 734C2881.29 726.667 2888.12 720.917 2896.79 716.75C2905.46 712.583 2915.37 710.5 2926.54 710.5C2937.54 710.5 2947.62 712.583 2956.79 716.75C2966.12 720.917 2973.96 726.333 2980.29 733L2968.29 747.75C2962.62 742.583 2956.37 738.5 2949.54 735.5C2942.87 732.333 2935.21 730.75 2926.54 730.75C2916.21 730.75 2907.87 733.167 2901.54 738C2895.37 742.667 2892.29 749.083 2892.29 757.25C2892.29 763.25 2893.79 768.167 2896.79 772C2899.96 775.833 2903.87 778.917 2908.54 781.25C2913.21 783.583 2917.96 785.833 2922.79 788L2948.79 799.25C2955.79 802.25 2962.12 805.833 2967.79 810C2973.62 814.167 2978.21 819.333 2981.54 825.5C2984.87 831.667 2986.54 839.25 2986.54 848.25C2986.54 857.917 2984.04 866.75 2979.04 874.75C2974.04 882.583 2966.87 888.833 2957.54 893.5C2948.21 898 2937.12 900.25 2924.29 900.25ZM3054.12 897V733.25H2998.62V713.75H3132.87V733.25H3077.37V897H3054.12ZM3165.78 897V713.75H3188.78V897H3165.78ZM3277.02 897V733.25H3221.52V713.75H3355.77V733.25H3300.27V897H3277.02ZM3453.68 900.25C3444.34 900.25 3435.68 898.917 3427.68 896.25C3419.68 893.583 3412.68 889.167 3406.68 883C3400.84 876.833 3396.26 868.667 3392.93 858.5C3389.59 848.333 3387.93 836 3387.93 821.5V713.75H3410.93V822C3410.93 836.667 3412.84 848.25 3416.68 856.75C3420.51 865.083 3425.59 871.083 3431.93 874.75C3438.43 878.25 3445.68 880 3453.68 880C3461.84 880 3469.18 878.25 3475.68 874.75C3482.18 871.083 3487.34 865.083 3491.18 856.75C3495.18 848.25 3497.18 836.667 3497.18 822V713.75H3519.43V821.5C3519.43 836 3517.76 848.333 3514.43 858.5C3511.26 868.667 3506.68 876.833 3500.68 883C3494.68 889.167 3487.68 893.583 3479.68 896.25C3471.68 898.917 3463.01 900.25 3453.68 900.25ZM3606.85 897V733.25H3551.35V713.75H3685.6V733.25H3630.1V897H3606.85ZM3718.51 897V713.75H3824.01V733.25H3741.51V790.75H3811.01V810.5H3741.51V877.25H3826.76V897H3718.51ZM3989.13 900.25C3973.8 900.25 3960.22 896.417 3948.38 888.75C3936.72 880.917 3927.55 869.833 3920.88 855.5C3914.22 841.167 3910.88 824.25 3910.88 804.75C3910.88 785.083 3914.22 768.25 3920.88 754.25C3927.55 740.083 3936.72 729.25 3948.38 721.75C3960.22 714.25 3973.8 710.5 3989.13 710.5C4004.47 710.5 4017.97 714.333 4029.63 722C4041.47 729.5 4050.72 740.25 4057.38 754.25C4064.05 768.25 4067.38 785.083 4067.38 804.75C4067.38 824.25 4064.05 841.167 4057.38 855.5C4050.72 869.833 4041.47 880.917 4029.63 888.75C4017.97 896.417 4004.47 900.25 3989.13 900.25ZM3989.13 880C4000.13 880 4009.72 876.917 4017.88 870.75C4026.05 864.583 4032.38 855.833 4036.88 844.5C4041.38 833.167 4043.63 819.917 4043.63 804.75C4043.63 789.417 4041.38 776.25 4036.88 765.25C4032.38 754.083 4026.05 745.583 4017.88 739.75C4009.72 733.75 4000.13 730.75 3989.13 730.75C3978.3 730.75 3968.72 733.75 3960.38 739.75C3952.22 745.583 3945.88 754.083 3941.38 765.25C3936.88 776.25 3934.63 789.417 3934.63 804.75C3934.63 819.917 3936.88 833.167 3941.38 844.5C3945.88 855.833 3952.22 864.583 3960.38 870.75C3968.72 876.917 3978.3 880 3989.13 880ZM4107.18 897V713.75H4212.68V733.25H4130.18V795.25H4200.18V814.75H4130.18V897H4107.18ZM4301.03 897V713.75H4324.03V877.25H4404.28V897H4301.03ZM4436.77 897V713.75H4459.77V897H4436.77ZM4510.01 897V713.75H4533.51L4600.51 829.25L4620.26 867H4621.51C4620.68 857.833 4619.93 848.25 4619.26 838.25C4618.6 828.25 4618.26 818.5 4618.26 809V713.75H4640.26V897H4616.51L4549.76 781.25L4530.01 743.75H4529.01C4529.51 752.917 4530.1 762.333 4530.76 772C4531.43 781.5 4531.76 791.083 4531.76 800.75V897H4510.01ZM4762.68 900.25C4746.51 900.25 4732.18 896.5 4719.68 889C4707.34 881.5 4697.59 870.667 4690.43 856.5C4683.43 842.333 4679.93 825.333 4679.93 805.5C4679.93 790.667 4682.01 777.417 4686.18 765.75C4690.34 753.917 4696.18 743.917 4703.68 735.75C4711.34 727.583 4720.26 721.333 4730.43 717C4740.59 712.667 4751.76 710.5 4763.93 710.5C4776.76 710.5 4787.43 712.917 4795.93 717.75C4804.43 722.417 4811.34 727.5 4816.68 733L4804.18 748C4799.51 743.167 4794.01 739.083 4787.68 735.75C4781.51 732.417 4773.84 730.75 4764.68 730.75C4752.34 730.75 4741.59 733.75 4732.43 739.75C4723.26 745.75 4716.18 754.333 4711.18 765.5C4706.18 776.5 4703.68 789.583 4703.68 804.75C4703.68 820.25 4706.01 833.667 4710.68 845C4715.51 856.167 4722.51 864.833 4731.68 871C4740.84 877 4751.93 880 4764.93 880C4771.43 880 4777.59 879.083 4783.43 877.25C4789.43 875.25 4794.26 872.583 4797.93 869.25V821.25H4758.93V802H4819.18V879C4813.18 885.167 4805.26 890.25 4795.43 894.25C4785.76 898.25 4774.84 900.25 4762.68 900.25ZM4928.04 900.25C4918.71 900.25 4910.04 898.917 4902.04 896.25C4894.04 893.583 4887.04 889.167 4881.04 883C4875.21 876.833 4870.62 868.667 4867.29 858.5C4863.96 848.333 4862.29 836 4862.29 821.5V713.75H4885.29V822C4885.29 836.667 4887.21 848.25 4891.04 856.75C4894.87 865.083 4899.96 871.083 4906.29 874.75C4912.79 878.25 4920.04 880 4928.04 880C4936.21 880 4943.54 878.25 4950.04 874.75C4956.54 871.083 4961.71 865.083 4965.54 856.75C4969.54 848.25 4971.54 836.667 4971.54 822V713.75H4993.79V821.5C4993.79 836 4992.12 848.333 4988.79 858.5C4985.62 868.667 4981.04 876.833 4975.04 883C4969.04 889.167 4962.04 893.583 4954.04 896.25C4946.04 898.917 4937.37 900.25 4928.04 900.25ZM5043.22 897V713.75H5066.22V897H5043.22ZM5167.21 900.25C5154.21 900.25 5142.21 897.833 5131.21 893C5120.38 888.167 5111.04 881.583 5103.21 873.25L5116.96 857.25C5123.46 864.083 5131.13 869.583 5139.96 873.75C5148.79 877.917 5157.96 880 5167.46 880C5179.63 880 5189.04 877.25 5195.71 871.75C5202.54 866.25 5205.96 859.083 5205.96 850.25C5205.96 843.75 5204.54 838.583 5201.71 834.75C5199.04 830.917 5195.38 827.75 5190.71 825.25C5186.21 822.583 5181.04 820 5175.21 817.5L5148.96 806C5143.29 803.5 5137.54 800.333 5131.71 796.5C5126.04 792.667 5121.29 787.667 5117.46 781.5C5113.63 775.333 5111.71 767.833 5111.71 759C5111.71 749.5 5114.21 741.167 5119.21 734C5124.21 726.667 5131.04 720.917 5139.71 716.75C5148.38 712.583 5158.29 710.5 5169.46 710.5C5180.46 710.5 5190.54 712.583 5199.71 716.75C5209.04 720.917 5216.88 726.333 5223.21 733L5211.21 747.75C5205.54 742.583 5199.29 738.5 5192.46 735.5C5185.79 732.333 5178.13 730.75 5169.46 730.75C5159.13 730.75 5150.79 733.167 5144.46 738C5138.29 742.667 5135.21 749.083 5135.21 757.25C5135.21 763.25 5136.71 768.167 5139.71 772C5142.88 775.833 5146.79 778.917 5151.46 781.25C5156.13 783.583 5160.88 785.833 5165.71 788L5191.71 799.25C5198.71 802.25 5205.04 805.833 5210.71 810C5216.54 814.167 5221.13 819.333 5224.46 825.5C5227.79 831.667 5229.46 839.25 5229.46 848.25C5229.46 857.917 5226.96 866.75 5221.96 874.75C5216.96 882.583 5209.79 888.833 5200.46 893.5C5191.13 898 5180.04 900.25 5167.21 900.25ZM5297.04 897V733.25H5241.54V713.75H5375.79V733.25H5320.29V897H5297.04ZM5408.7 897V713.75H5431.7V897H5408.7ZM5550.94 900.25C5539.6 900.25 5529.02 898.167 5519.19 894C5509.52 889.667 5501.1 883.417 5493.94 875.25C5486.77 867.083 5481.19 857.167 5477.19 845.5C5473.19 833.667 5471.19 820.333 5471.19 805.5C5471.19 790.667 5473.19 777.417 5477.19 765.75C5481.35 753.917 5487.1 743.917 5494.44 735.75C5501.77 727.583 5510.35 721.333 5520.19 717C5530.02 712.667 5540.77 710.5 5552.44 710.5C5563.6 710.5 5573.44 712.833 5581.94 717.5C5590.44 722 5597.35 727.167 5602.69 733L5590.19 748C5585.35 742.833 5579.85 738.667 5573.69 735.5C5567.52 732.333 5560.52 730.75 5552.69 730.75C5541.19 730.75 5531.1 733.75 5522.44 739.75C5513.77 745.75 5507.02 754.333 5502.19 765.5C5497.35 776.5 5494.94 789.583 5494.94 804.75C5494.94 820.25 5497.27 833.667 5501.94 845C5506.6 856.167 5513.19 864.833 5521.69 871C5530.19 877 5540.27 880 5551.94 880C5560.6 880 5568.35 878.167 5575.19 874.5C5582.19 870.833 5588.6 865.75 5594.44 859.25L5607.19 874C5600.02 882.333 5591.85 888.833 5582.69 893.5C5573.52 898 5562.94 900.25 5550.94 900.25ZM5684.79 900.25C5671.79 900.25 5659.79 897.833 5648.79 893C5637.95 888.167 5628.62 881.583 5620.79 873.25L5634.54 857.25C5641.04 864.083 5648.7 869.583 5657.54 873.75C5666.37 877.917 5675.54 880 5685.04 880C5697.2 880 5706.62 877.25 5713.29 871.75C5720.12 866.25 5723.54 859.083 5723.54 850.25C5723.54 843.75 5722.12 838.583 5719.29 834.75C5716.62 830.917 5712.95 827.75 5708.29 825.25C5703.79 822.583 5698.62 820 5692.79 817.5L5666.54 806C5660.87 803.5 5655.12 800.333 5649.29 796.5C5643.62 792.667 5638.87 787.667 5635.04 781.5C5631.2 775.333 5629.29 767.833 5629.29 759C5629.29 749.5 5631.79 741.167 5636.79 734C5641.79 726.667 5648.62 720.917 5657.29 716.75C5665.95 712.583 5675.87 710.5 5687.04 710.5C5698.04 710.5 5708.12 712.583 5717.29 716.75C5726.62 720.917 5734.45 726.333 5740.79 733L5728.79 747.75C5723.12 742.583 5716.87 738.5 5710.04 735.5C5703.37 732.333 5695.7 730.75 5687.04 730.75C5676.7 730.75 5668.37 733.167 5662.04 738C5655.87 742.667 5652.79 749.083 5652.79 757.25C5652.79 763.25 5654.29 768.167 5657.29 772C5660.45 775.833 5664.37 778.917 5669.04 781.25C5673.7 783.583 5678.45 785.833 5683.29 788L5709.29 799.25C5716.29 802.25 5722.62 805.833 5728.29 810C5734.12 814.167 5738.7 819.333 5742.04 825.5C5745.37 831.667 5747.04 839.25 5747.04 848.25C5747.04 857.917 5744.54 866.75 5739.54 874.75C5734.54 882.583 5727.37 888.833 5718.04 893.5C5708.7 898 5697.62 900.25 5684.79 900.25Z" fill="white"/>
<g clip-path="url(#clip0_157_20)">
<path d="M492.647 897.118H188.235C122.347 897.118 89.4026 897.118 64.2365 884.294C42.0997 873.015 24.102 855.018 12.8228 832.882C0 807.715 0 774.771 0 708.882V198.588C0 145.796 42.7962 103 95.5882 103C148.38 103 191.176 145.796 191.176 198.588V517.706C191.176 583.594 191.176 616.538 203.999 641.706C215.279 663.841 233.276 681.838 255.413 693.118C280.579 705.941 313.524 705.941 379.412 705.941H492.647C545.438 705.941 588.235 748.738 588.235 801.529C588.235 854.321 545.438 897.118 492.647 897.118Z" fill="#5C7480"/>
<path d="M485.309 103H797.059C862.947 103 895.891 103 921.059 115.823C943.194 127.102 961.191 145.1 972.471 167.236C985.294 192.402 985.294 225.347 985.294 291.235V801.544C985.294 854.341 942.488 897.141 889.691 897.132C836.906 897.124 794.118 854.329 794.118 801.544V497.147C794.118 431.259 794.118 398.315 781.294 373.147C770.015 351.011 752.018 333.013 729.882 321.734C704.715 308.911 671.771 308.911 605.882 308.911H485.309C428.447 308.911 382.353 262.816 382.353 205.956C382.353 149.095 428.447 103 485.309 103Z" fill="#62AFB0"/>
</g>
<defs>
<clipPath id="clip0_157_20">
<rect width="1000" height="794.118" fill="white" transform="translate(0 103)"/>
</clipPath>
</defs>
</svg>
