<svg width="1000" height="1000" viewBox="0 0 1000 1000" fill="none" xmlns="http://www.w3.org/2000/svg">
<rect width="1000" height="1000" fill="#0D6EFD"/>
<path d="M515 650H278C233.6 650 200 611 200 574.695V365C200 356.716 206.716 350 215 350H252.2C260.484 350 267.2 356.716 267.2 365V536C267.2 569.6 289.4 590 321.2 590H479.6C506.6 590 520.4 560.6 479.6 530C440.6 500.75 388.4 488 388.4 428C388.4 387.8 414.8 350 479.6 350H785C793.284 350 800 356.716 800 365V386.6C800 394.884 793.284 401.6 785 401.6H758.6C750.316 401.6 743.6 408.316 743.6 416.6V635C743.6 643.284 736.884 650 728.6 650H686.6C678.316 650 671.6 643.284 671.6 635V417.8C671.6 409.516 664.884 402.8 656.6 402.8H523.4C460.4 402.8 443.6 436.4 523.4 488C586.564 528.843 590 546.8 590 574.4C590 602 564.8 650 515 650Z" fill="white"/>
</svg>
